<?xml version="1.0" encoding="UTF-8" ?>
<!DOCTYPE svg PUBLIC "-//W3C//DTD SVG 1.1//EN" "http://www.w3.org/Graphics/SVG/1.1/DTD/svg11.dtd">
<svg width="200pt" height="200pt" viewBox="0 0 200 200" version="1.1" xmlns="http://www.w3.org/2000/svg">
<g id="#ffffffff">
<path fill="#ffffff" opacity="1.00" d=" M 93.34 52.33 C 95.18 49.50 96.68 46.34 99.15 43.99 C 102.47 43.44 103.33 48.02 105.16 49.87 C 113.64 64.64 122.14 79.41 130.35 94.33 C 124.71 92.86 118.73 92.06 113.46 89.45 C 108.04 83.20 104.32 75.75 100.22 68.63 C 94.27 77.45 89.12 86.77 83.97 96.07 C 89.38 93.69 94.67 90.00 100.65 89.60 C 111.46 93.21 121.60 98.64 132.24 102.73 C 137.92 104.82 140.13 111.02 143.12 115.79 C 138.46 116.24 134.08 118.24 131.38 122.08 C 126.59 113.30 116.50 110.66 108.03 106.89 C 104.78 105.72 101.30 103.65 97.74 104.78 C 83.30 109.47 70.40 118.55 55.32 121.32 C 58.98 110.22 65.90 100.71 71.59 90.63 C 78.91 77.90 86.11 65.10 93.34 52.33 Z" />
<path fill="#ffffff" opacity="1.00" d=" M 95.03 116.96 C 97.22 116.10 99.67 115.02 102.02 115.94 C 111.10 119.26 119.67 123.81 128.73 127.19 C 127.05 128.82 125.42 130.48 123.80 132.16 C 124.44 135.07 125.16 138.00 125.89 140.89 C 119.05 137.66 112.11 134.64 105.12 131.75 C 102.58 130.69 99.70 129.86 97.02 130.98 C 76.29 138.98 56.64 149.95 35.37 156.51 C 37.19 148.33 42.02 141.31 46.33 134.28 C 51.48 128.08 59.74 126.06 67.04 123.57 C 66.37 125.70 65.67 127.83 64.98 129.97 C 75.10 125.89 85.04 121.37 95.03 116.96 Z" />
<path fill="#ffffff" opacity="1.00" d=" M 137.49 122.15 C 142.85 122.58 146.92 118.79 151.78 117.66 C 156.49 119.81 161.13 122.48 166.58 121.74 C 167.91 126.87 171.78 130.31 175.69 133.51 C 175.15 135.90 174.18 138.25 174.18 140.72 C 174.69 143.40 175.98 145.83 176.92 148.37 C 172.99 151.59 168.97 154.96 167.53 160.09 C 162.03 159.48 157.11 161.80 152.89 165.01 C 148.03 162.53 143.16 159.58 137.43 160.24 C 136.08 155.10 132.19 151.67 128.27 148.47 C 130.34 143.61 130.34 138.39 128.27 133.53 C 132.04 130.34 135.89 127.04 137.49 122.15 Z" />
<path fill="#ffffff" opacity="1.00" d=" M 132.11 153.78 C 133.31 156.48 134.51 159.18 135.78 161.85 C 140.81 162.10 145.68 163.19 149.77 166.26 C 146.70 172.77 143.58 179.28 139.85 185.44 C 137.76 181.70 135.62 177.98 133.63 174.18 C 129.59 174.76 125.56 175.37 121.53 175.92 C 124.69 168.37 128.41 161.07 132.11 153.78 Z" />
<path fill="#ffffff" opacity="1.00" d=" M 169.00 161.96 C 169.90 159.19 170.78 156.42 171.69 153.67 C 175.57 161.05 179.24 168.54 183.00 175.98 C 178.81 175.73 174.63 175.42 170.45 175.16 C 168.52 178.62 166.42 181.98 164.33 185.36 C 160.93 178.88 157.64 172.35 154.33 165.83 C 158.71 162.86 163.94 162.63 169.00 161.96 Z" />
</g>
</svg>
