<?xml version="1.0" encoding="UTF-8" ?>
<!DOCTYPE svg PUBLIC "-//W3C//DTD SVG 1.1//EN" "http://www.w3.org/Graphics/SVG/1.1/DTD/svg11.dtd">
<svg width="200pt" height="200pt" viewBox="0 0 200 200" version="1.1" xmlns="http://www.w3.org/2000/svg">
<g id="#000000ff">
<path fill="#000000" opacity="1.00" d=" M 97.58 45.53 C 98.25 43.32 101.75 43.30 102.41 45.53 C 109.07 56.34 114.92 67.62 121.57 78.44 C 124.40 83.68 127.63 88.70 130.27 94.05 C 125.63 94.41 121.45 92.16 117.11 90.91 C 115.03 90.18 112.50 89.78 111.35 87.64 C 107.45 81.69 104.45 75.18 100.60 69.20 C 100.30 69.19 99.72 69.18 99.42 69.17 C 94.23 78.14 89.09 87.15 83.86 96.10 C 89.14 93.58 94.43 90.97 100.00 89.17 C 107.23 91.51 113.92 95.24 120.97 98.05 C 126.00 100.41 131.32 102.17 136.24 104.74 C 139.17 108.36 141.40 112.60 143.28 116.88 C 140.28 117.10 136.94 116.48 134.30 118.28 C 132.97 119.68 132.22 121.52 131.32 123.21 C 130.00 120.00 128.90 116.04 125.35 114.62 C 117.51 111.01 109.51 107.72 101.55 104.36 C 99.50 103.29 97.47 104.91 95.55 105.53 C 85.34 110.02 74.98 114.18 64.88 118.89 C 62.03 120.20 59.07 121.36 55.87 121.07 C 55.79 115.68 59.75 111.57 62.00 107.00 C 73.97 86.58 85.56 65.93 97.58 45.53 Z" />
<path fill="#000000" opacity="1.00" d=" M 97.13 116.09 C 98.51 115.63 99.98 114.74 101.41 115.58 C 110.75 119.15 119.56 124.03 129.05 127.20 C 127.08 128.52 124.99 130.00 124.25 132.39 C 123.12 135.43 125.27 138.28 126.26 141.03 C 117.57 137.22 108.93 133.13 100.00 129.94 C 89.94 133.54 80.26 138.26 70.42 142.45 C 60.87 146.57 51.30 150.64 41.75 154.77 C 39.94 155.65 37.97 156.02 35.98 156.16 C 35.89 153.81 35.83 151.33 37.39 149.39 C 41.18 143.72 44.11 137.52 47.84 131.82 C 52.16 128.82 57.29 127.30 61.98 124.99 C 63.57 124.09 65.41 123.98 67.19 123.89 C 66.43 125.95 65.56 127.97 64.76 130.01 C 75.66 125.65 86.45 120.97 97.13 116.09 Z" />
<path fill="#000000" opacity="1.00" d=" M 143.96 121.96 C 146.91 120.37 148.98 116.45 152.81 116.96 C 155.36 117.85 156.51 121.03 159.05 121.91 C 161.74 121.63 164.87 119.98 167.35 121.62 C 168.22 123.92 167.97 126.55 169.25 128.72 C 171.33 130.72 175.02 131.18 176.09 134.09 C 175.63 136.48 173.97 138.44 173.34 140.79 C 174.42 143.22 176.78 145.18 177.06 147.88 C 176.04 151.41 170.74 151.13 169.64 154.62 C 168.72 156.66 169.50 159.30 167.78 160.97 C 165.16 161.38 162.61 160.53 160.06 160.08 C 157.26 161.39 155.51 164.98 152.10 165.04 C 149.43 164.24 147.68 161.95 145.57 160.29 C 142.69 159.82 139.35 162.27 136.65 160.39 C 135.76 158.09 136.05 155.44 134.75 153.27 C 132.66 151.28 128.97 150.81 127.91 147.90 C 128.46 145.41 129.89 143.23 131.06 141.00 C 129.89 138.77 128.49 136.59 127.91 134.11 C 129.11 130.40 135.03 130.79 135.59 126.61 C 136.24 124.82 135.63 122.34 137.32 121.09 C 139.58 120.58 141.76 121.62 143.96 121.96 Z" />
<path fill="#000000" opacity="1.00" d=" M 127.01 164.00 C 128.87 160.56 130.13 156.75 132.65 153.70 C 133.41 157.08 134.17 160.86 137.37 162.84 C 139.88 163.29 142.46 162.97 144.92 162.35 C 146.44 163.87 147.95 165.42 149.36 167.05 C 146.60 173.06 143.50 178.90 140.63 184.85 C 140.32 184.85 139.71 184.84 139.40 184.84 C 137.64 181.18 135.49 177.75 133.64 174.15 C 129.73 175.02 125.71 175.24 121.79 176.07 C 122.46 171.65 125.22 168.00 127.01 164.00 Z" />
<path fill="#000000" opacity="1.00" d=" M 171.37 153.68 C 175.98 160.74 179.06 168.69 183.06 176.11 C 178.78 176.19 174.67 174.60 170.38 175.03 C 168.58 178.59 166.75 182.22 164.22 185.33 C 160.97 179.24 158.15 172.93 154.80 166.89 C 156.16 165.31 157.60 163.81 159.09 162.36 C 162.13 162.93 166.13 164.08 168.44 161.36 C 170.42 159.32 170.54 156.26 171.37 153.68 Z" />
</g>
</svg>
